<svg width="210" height="210" viewBox="0 0 210 210" fill="none" xmlns="http://www.w3.org/2000/svg">
<path d="M104.994 52.9138C99.2653 52.9138 94.5781 57.601 94.5781 63.3298V94.5781H63.3298C57.601 94.5781 52.9138 99.2653 52.9138 104.994C52.9138 110.723 57.601 115.41 63.3298 115.41H94.5781V146.658C94.5781 152.387 99.2653 157.075 104.994 157.075C110.723 157.075 115.41 152.387 115.41 146.658V115.41H146.658C152.387 115.41 157.075 110.723 157.075 104.994C157.075 99.2653 152.387 94.5781 146.658 94.5781H115.41V63.3298C115.41 57.601 110.723 52.9138 104.994 52.9138ZM104.994 0.833344C47.4974 0.833344 0.833344 47.4974 0.833344 104.994C0.833344 162.491 47.4974 209.155 104.994 209.155C162.491 209.155 209.155 162.491 209.155 104.994C209.155 47.4974 162.491 0.833344 104.994 0.833344ZM104.994 188.323C59.0592 188.323 21.6655 150.929 21.6655 104.994C21.6655 59.0592 59.0592 21.6655 104.994 21.6655C150.929 21.6655 188.323 59.0592 188.323 104.994C188.323 150.929 150.929 188.323 104.994 188.323Z" fill="white"/>
</svg>
