<svg width="210" height="80" viewBox="0 0 210 80" fill="none" xmlns="http://www.w3.org/2000/svg">
<rect opacity="0.7" x="112" width="19" height="37" rx="7" fill="#E4AC59"/>
<rect opacity="0.7" x="42" y="42" width="62" height="37" rx="7" fill="#5999E4"/>
<rect opacity="0.7" x="112" y="43" width="98" height="37" rx="7" fill="#56D953"/>
<rect opacity="0.7" x="72" width="32" height="37" rx="7" fill="#E45959"/>
<path d="M141.132 14.2V24H139.746V15.418H137.534V14.2H141.132ZM150.164 22.782V24H143.122V23.048L147.112 19.198C147.597 18.7313 147.924 18.33 148.092 17.994C148.26 17.6487 148.344 17.3033 148.344 16.958C148.344 16.4447 148.162 16.048 147.798 15.768C147.443 15.4787 146.93 15.334 146.258 15.334C145.175 15.334 144.34 15.6887 143.752 16.398L142.8 15.572C143.182 15.1053 143.682 14.7413 144.298 14.48C144.923 14.2187 145.618 14.088 146.384 14.088C147.41 14.088 148.227 14.3353 148.834 14.83C149.44 15.3153 149.744 15.978 149.744 16.818C149.744 17.3407 149.632 17.8353 149.408 18.302C149.184 18.7687 148.759 19.3007 148.134 19.898L145.138 22.782H150.164ZM153.579 19.464C152.898 19.464 152.347 19.2167 151.927 18.722C151.507 18.2273 151.297 17.5833 151.297 16.79C151.297 15.9967 151.507 15.3527 151.927 14.858C152.347 14.3633 152.898 14.116 153.579 14.116C154.261 14.116 154.807 14.3633 155.217 14.858C155.637 15.3433 155.847 15.9873 155.847 16.79C155.847 17.5927 155.637 18.2413 155.217 18.736C154.807 19.2213 154.261 19.464 153.579 19.464ZM159.487 14.2H160.565L153.873 24H152.795L159.487 14.2ZM153.579 18.666C154.009 18.666 154.345 18.5027 154.587 18.176C154.83 17.84 154.951 17.378 154.951 16.79C154.951 16.202 154.83 15.7447 154.587 15.418C154.345 15.082 154.009 14.914 153.579 14.914C153.159 14.914 152.823 15.082 152.571 15.418C152.329 15.754 152.207 16.2113 152.207 16.79C152.207 17.3687 152.329 17.826 152.571 18.162C152.823 18.498 153.159 18.666 153.579 18.666ZM159.781 24.084C159.1 24.084 158.549 23.8413 158.129 23.356C157.719 22.8613 157.513 22.2127 157.513 21.41C157.513 20.6073 157.719 19.9633 158.129 19.478C158.549 18.9833 159.1 18.736 159.781 18.736C160.463 18.736 161.013 18.9833 161.433 19.478C161.853 19.9727 162.063 20.6167 162.063 21.41C162.063 22.2033 161.853 22.8473 161.433 23.342C161.013 23.8367 160.463 24.084 159.781 24.084ZM159.781 23.286C160.201 23.286 160.533 23.118 160.775 22.782C161.027 22.446 161.153 21.9887 161.153 21.41C161.153 20.8313 161.027 20.374 160.775 20.038C160.533 19.702 160.201 19.534 159.781 19.534C159.352 19.534 159.016 19.702 158.773 20.038C158.531 20.3647 158.409 20.822 158.409 21.41C158.409 21.998 158.531 22.46 158.773 22.796C159.016 23.1227 159.352 23.286 159.781 23.286Z" fill="#6E6B7B"/>
<path d="M37.2686 14.2V24H35.8826V15.418H33.6706V14.2H37.2686ZM42.2122 18.106C43.6122 18.106 44.6389 18.372 45.2922 18.904C45.9549 19.4267 46.2862 20.1453 46.2862 21.06C46.2862 21.6387 46.1462 22.1613 45.8662 22.628C45.5956 23.0853 45.1802 23.4493 44.6202 23.72C44.0696 23.9813 43.3882 24.112 42.5762 24.112C41.8856 24.112 41.2182 24.0093 40.5742 23.804C39.9302 23.5893 39.3982 23.2953 38.9782 22.922L39.6222 21.816C39.9582 22.1333 40.3876 22.39 40.9102 22.586C41.4329 22.7727 41.9836 22.866 42.5622 22.866C43.2996 22.866 43.8689 22.712 44.2702 22.404C44.6809 22.0867 44.8862 21.6573 44.8862 21.116C44.8862 20.528 44.6622 20.0847 44.2142 19.786C43.7662 19.478 43.0009 19.324 41.9182 19.324H39.6922L40.2102 14.2H45.7402V15.418H41.3862L41.1202 18.106H42.2122ZM49.4426 19.464C48.7612 19.464 48.2106 19.2167 47.7906 18.722C47.3706 18.2273 47.1606 17.5833 47.1606 16.79C47.1606 15.9967 47.3706 15.3527 47.7906 14.858C48.2106 14.3633 48.7612 14.116 49.4426 14.116C50.1239 14.116 50.6699 14.3633 51.0806 14.858C51.5006 15.3433 51.7106 15.9873 51.7106 16.79C51.7106 17.5927 51.5006 18.2413 51.0806 18.736C50.6699 19.2213 50.1239 19.464 49.4426 19.464ZM55.3506 14.2H56.4286L49.7366 24H48.6586L55.3506 14.2ZM49.4426 18.666C49.8719 18.666 50.2079 18.5027 50.4506 18.176C50.6932 17.84 50.8146 17.378 50.8146 16.79C50.8146 16.202 50.6932 15.7447 50.4506 15.418C50.2079 15.082 49.8719 14.914 49.4426 14.914C49.0226 14.914 48.6866 15.082 48.4346 15.418C48.1919 15.754 48.0706 16.2113 48.0706 16.79C48.0706 17.3687 48.1919 17.826 48.4346 18.162C48.6866 18.498 49.0226 18.666 49.4426 18.666ZM55.6446 24.084C54.9632 24.084 54.4126 23.8413 53.9926 23.356C53.5819 22.8613 53.3766 22.2127 53.3766 21.41C53.3766 20.6073 53.5819 19.9633 53.9926 19.478C54.4126 18.9833 54.9632 18.736 55.6446 18.736C56.3259 18.736 56.8766 18.9833 57.2966 19.478C57.7166 19.9727 57.9266 20.6167 57.9266 21.41C57.9266 22.2033 57.7166 22.8473 57.2966 23.342C56.8766 23.8367 56.3259 24.084 55.6446 24.084ZM55.6446 23.286C56.0646 23.286 56.3959 23.118 56.6386 22.782C56.8906 22.446 57.0166 21.9887 57.0166 21.41C57.0166 20.8313 56.8906 20.374 56.6386 20.038C56.3959 19.702 56.0646 19.534 55.6446 19.534C55.2152 19.534 54.8792 19.702 54.6366 20.038C54.3939 20.3647 54.2726 20.822 54.2726 21.41C54.2726 21.998 54.3939 22.46 54.6366 22.796C54.8792 23.1227 55.2152 23.286 55.6446 23.286Z" fill="#6E6B7B"/>
<path d="M9.63591 61.316C10.5972 61.4093 11.3299 61.708 11.8339 62.212C12.3379 62.7067 12.5899 63.3413 12.5899 64.116C12.5899 64.676 12.4499 65.1847 12.1699 65.642C11.8899 66.09 11.4699 66.4493 10.9099 66.72C10.3592 66.9813 9.68258 67.112 8.87991 67.112C8.17991 67.112 7.50791 67.0093 6.86391 66.804C6.21991 66.5893 5.69258 66.2953 5.28191 65.922L5.92591 64.816C6.26191 65.1333 6.69125 65.39 7.21391 65.586C7.73658 65.7727 8.29191 65.866 8.87991 65.866C9.60791 65.866 10.1726 65.712 10.5739 65.404C10.9846 65.096 11.1899 64.6713 11.1899 64.13C11.1899 63.5887 10.9892 63.1687 10.5879 62.87C10.1866 62.5713 9.57991 62.422 8.76791 62.422H7.98391V61.442L10.4479 58.418H5.72991V57.2H12.1979V58.152L9.63591 61.316ZM16.5589 61.106C17.9589 61.106 18.9856 61.372 19.6389 61.904C20.3016 62.4267 20.6329 63.1453 20.6329 64.06C20.6329 64.6387 20.4929 65.1613 20.2129 65.628C19.9422 66.0853 19.5269 66.4493 18.9669 66.72C18.4162 66.9813 17.7349 67.112 16.9229 67.112C16.2322 67.112 15.5649 67.0093 14.9209 66.804C14.2769 66.5893 13.7449 66.2953 13.3249 65.922L13.9689 64.816C14.3049 65.1333 14.7342 65.39 15.2569 65.586C15.7796 65.7727 16.3302 65.866 16.9089 65.866C17.6462 65.866 18.2156 65.712 18.6169 65.404C19.0276 65.0867 19.2329 64.6573 19.2329 64.116C19.2329 63.528 19.0089 63.0847 18.5609 62.786C18.1129 62.478 17.3476 62.324 16.2649 62.324H14.0389L14.5569 57.2H20.0869V58.418H15.7329L15.4669 61.106H16.5589ZM23.7893 62.464C23.1079 62.464 22.5573 62.2167 22.1373 61.722C21.7173 61.2273 21.5073 60.5833 21.5073 59.79C21.5073 58.9967 21.7173 58.3527 22.1373 57.858C22.5573 57.3633 23.1079 57.116 23.7893 57.116C24.4706 57.116 25.0166 57.3633 25.4273 57.858C25.8473 58.3433 26.0573 58.9873 26.0573 59.79C26.0573 60.5927 25.8473 61.2413 25.4273 61.736C25.0166 62.2213 24.4706 62.464 23.7893 62.464ZM29.6973 57.2H30.7753L24.0833 67H23.0053L29.6973 57.2ZM23.7893 61.666C24.2186 61.666 24.5546 61.5027 24.7973 61.176C25.0399 60.84 25.1613 60.378 25.1613 59.79C25.1613 59.202 25.0399 58.7447 24.7973 58.418C24.5546 58.082 24.2186 57.914 23.7893 57.914C23.3693 57.914 23.0333 58.082 22.7813 58.418C22.5386 58.754 22.4173 59.2113 22.4173 59.79C22.4173 60.3687 22.5386 60.826 22.7813 61.162C23.0333 61.498 23.3693 61.666 23.7893 61.666ZM29.9913 67.084C29.3099 67.084 28.7593 66.8413 28.3393 66.356C27.9286 65.8613 27.7233 65.2127 27.7233 64.41C27.7233 63.6073 27.9286 62.9633 28.3393 62.478C28.7593 61.9833 29.3099 61.736 29.9913 61.736C30.6726 61.736 31.2233 61.9833 31.6433 62.478C32.0633 62.9727 32.2733 63.6167 32.2733 64.41C32.2733 65.2033 32.0633 65.8473 31.6433 66.342C31.2233 66.8367 30.6726 67.084 29.9913 67.084ZM29.9913 66.286C30.4113 66.286 30.7426 66.118 30.9853 65.782C31.2373 65.446 31.3633 64.9887 31.3633 64.41C31.3633 63.8313 31.2373 63.374 30.9853 63.038C30.7426 62.702 30.4113 62.534 29.9913 62.534C29.5619 62.534 29.2259 62.702 28.9833 63.038C28.7406 63.3647 28.6193 63.822 28.6193 64.41C28.6193 64.998 28.7406 65.46 28.9833 65.796C29.2259 66.1227 29.5619 66.286 29.9913 66.286Z" fill="#6E6B7B"/>
<path d="M181.082 61.316C182.044 61.4093 182.776 61.708 183.28 62.212C183.784 62.7067 184.036 63.3413 184.036 64.116C184.036 64.676 183.896 65.1847 183.616 65.642C183.336 66.09 182.916 66.4493 182.356 66.72C181.806 66.9813 181.129 67.112 180.326 67.112C179.626 67.112 178.954 67.0093 178.31 66.804C177.666 66.5893 177.139 66.2953 176.728 65.922L177.372 64.816C177.708 65.1333 178.138 65.39 178.66 65.586C179.183 65.7727 179.738 65.866 180.326 65.866C181.054 65.866 181.619 65.712 182.02 65.404C182.431 65.096 182.636 64.6713 182.636 64.13C182.636 63.5887 182.436 63.1687 182.034 62.87C181.633 62.5713 181.026 62.422 180.214 62.422H179.43V61.442L181.894 58.418H177.176V57.2H183.644V58.152L181.082 61.316ZM191.334 61.862C191.894 62.0767 192.323 62.3847 192.622 62.786C192.921 63.1873 193.07 63.668 193.07 64.228C193.07 64.816 192.911 65.3293 192.594 65.768C192.277 66.1973 191.824 66.5287 191.236 66.762C190.648 66.9953 189.957 67.112 189.164 67.112C188.38 67.112 187.694 66.9953 187.106 66.762C186.527 66.5287 186.079 66.1973 185.762 65.768C185.445 65.3293 185.286 64.816 185.286 64.228C185.286 63.668 185.431 63.1873 185.72 62.786C186.019 62.3847 186.448 62.0767 187.008 61.862C186.56 61.6473 186.219 61.3627 185.986 61.008C185.753 60.6533 185.636 60.2333 185.636 59.748C185.636 59.2067 185.781 58.7353 186.07 58.334C186.369 57.9327 186.784 57.6247 187.316 57.41C187.848 57.1953 188.464 57.088 189.164 57.088C189.873 57.088 190.494 57.1953 191.026 57.41C191.567 57.6247 191.983 57.9327 192.272 58.334C192.571 58.7353 192.72 59.2067 192.72 59.748C192.72 60.224 192.599 60.644 192.356 61.008C192.123 61.3627 191.782 61.6473 191.334 61.862ZM189.164 58.222C188.501 58.222 187.979 58.3667 187.596 58.656C187.213 58.936 187.022 59.3187 187.022 59.804C187.022 60.2893 187.209 60.672 187.582 60.952C187.965 61.232 188.492 61.372 189.164 61.372C189.845 61.372 190.377 61.232 190.76 60.952C191.152 60.672 191.348 60.2893 191.348 59.804C191.348 59.3187 191.147 58.936 190.746 58.656C190.354 58.3667 189.827 58.222 189.164 58.222ZM189.164 65.978C189.939 65.978 190.55 65.8193 190.998 65.502C191.446 65.1753 191.67 64.7367 191.67 64.186C191.67 63.6447 191.446 63.22 190.998 62.912C190.55 62.5947 189.939 62.436 189.164 62.436C188.389 62.436 187.783 62.5947 187.344 62.912C186.905 63.22 186.686 63.6447 186.686 64.186C186.686 64.7367 186.905 65.1753 187.344 65.502C187.783 65.8193 188.389 65.978 189.164 65.978ZM196.343 62.464C195.662 62.464 195.111 62.2167 194.691 61.722C194.271 61.2273 194.061 60.5833 194.061 59.79C194.061 58.9967 194.271 58.3527 194.691 57.858C195.111 57.3633 195.662 57.116 196.343 57.116C197.024 57.116 197.57 57.3633 197.981 57.858C198.401 58.3433 198.611 58.9873 198.611 59.79C198.611 60.5927 198.401 61.2413 197.981 61.736C197.57 62.2213 197.024 62.464 196.343 62.464ZM202.251 57.2H203.329L196.637 67H195.559L202.251 57.2ZM196.343 61.666C196.772 61.666 197.108 61.5027 197.351 61.176C197.594 60.84 197.715 60.378 197.715 59.79C197.715 59.202 197.594 58.7447 197.351 58.418C197.108 58.082 196.772 57.914 196.343 57.914C195.923 57.914 195.587 58.082 195.335 58.418C195.092 58.754 194.971 59.2113 194.971 59.79C194.971 60.3687 195.092 60.826 195.335 61.162C195.587 61.498 195.923 61.666 196.343 61.666ZM202.545 67.084C201.864 67.084 201.313 66.8413 200.893 66.356C200.482 65.8613 200.277 65.2127 200.277 64.41C200.277 63.6073 200.482 62.9633 200.893 62.478C201.313 61.9833 201.864 61.736 202.545 61.736C203.226 61.736 203.777 61.9833 204.197 62.478C204.617 62.9727 204.827 63.6167 204.827 64.41C204.827 65.2033 204.617 65.8473 204.197 66.342C203.777 66.8367 203.226 67.084 202.545 67.084ZM202.545 66.286C202.965 66.286 203.296 66.118 203.539 65.782C203.791 65.446 203.917 64.9887 203.917 64.41C203.917 63.8313 203.791 63.374 203.539 63.038C203.296 62.702 202.965 62.534 202.545 62.534C202.116 62.534 201.78 62.702 201.537 63.038C201.294 63.3647 201.173 63.822 201.173 64.41C201.173 64.998 201.294 65.46 201.537 65.796C201.78 66.1227 202.116 66.286 202.545 66.286Z" fill="#6E6B7B"/>
</svg>
